<svg xmlns="http://www.w3.org/2000/svg" viewBox="0 0 1200 720" role="img" aria-labelledby="title desc">
  <title id="title">รถซีดาน</title>
  <desc id="desc">ภาพวาดรถซีดานด้านข้าง ไม่มีลายน้ำ</desc>
  <defs>
    <linearGradient id="body" x1="120" x2="1080" y1="315" y2="455" gradientUnits="userSpaceOnUse">
      <stop offset="0" stop-color="#111"/>
      <stop offset=".38" stop-color="#4a4a4a"/>
      <stop offset=".62" stop-color="#171717"/>
      <stop offset="1" stop-color="#050505"/>
    </linearGradient>
    <linearGradient id="shine" x1="210" x2="930" y1="314" y2="400" gradientUnits="userSpaceOnUse">
      <stop offset="0" stop-color="#fff" stop-opacity=".08"/>
      <stop offset=".48" stop-color="#fff" stop-opacity=".52"/>
      <stop offset="1" stop-color="#fff" stop-opacity=".06"/>
    </linearGradient>
    <filter id="shadow" x="-10%" y="-20%" width="120%" height="150%">
      <feDropShadow dx="0" dy="26" stdDeviation="16" flood-color="#0f172a" flood-opacity=".12"/>
    </filter>
  </defs>
  <rect width="1200" height="720" fill="#fff"/>
  <ellipse cx="604" cy="516" rx="454" ry="17" fill="#111827" opacity=".12"/>
  <g filter="url(#shadow)">
    <path d="M104 432c13-45 33-75 61-91 20-11 54-18 101-23l82-9c63-67 141-101 234-101h142c96 0 178 34 246 101l76 8c62 7 103 34 124 82l17 39c5 12-4 25-17 25H116c-10 0-16-10-12-31z" fill="url(#body)"/>
    <path d="M382 311c53-54 119-80 199-80h130c81 0 150 27 207 80H382z" fill="#080808"/>
    <path d="M418 304c44-37 95-56 153-58l-28 58H418zM611 246h93c55 2 103 21 145 58H583l28-58z" fill="#1f2937"/>
    <path d="M169 382c170 29 359 42 567 39 135-2 246-11 332-28" fill="none" stroke="url(#shine)" stroke-width="17" stroke-linecap="round"/>
    <path d="M342 361h75M802 361h83" stroke="#e5e7eb" stroke-width="14" stroke-linecap="round" opacity=".58"/>
    <path d="M274 445c0-66 53-119 119-119s119 53 119 119H274zM810 445c0-66 53-119 119-119s119 53 119 119H810z" fill="#050505"/>
    <circle cx="393" cy="445" r="75" fill="#09090b"/>
    <circle cx="393" cy="445" r="53" fill="#fafafa"/>
    <circle cx="393" cy="445" r="36" fill="#e5e7eb"/>
    <circle cx="393" cy="445" r="13" fill="#111827"/>
    <g stroke="#111827" stroke-width="5" stroke-linecap="round">
      <path d="M393 410v70M358 445h70M368 420l50 50M418 420l-50 50"/>
    </g>
    <circle cx="929" cy="445" r="75" fill="#09090b"/>
    <circle cx="929" cy="445" r="53" fill="#fafafa"/>
    <circle cx="929" cy="445" r="36" fill="#e5e7eb"/>
    <circle cx="929" cy="445" r="13" fill="#111827"/>
    <g stroke="#111827" stroke-width="5" stroke-linecap="round">
      <path d="M929 410v70M894 445h70M904 420l50 50M954 420l-50 50"/>
    </g>
    <path d="M91 401h87c24 0 42 21 38 45l-3 17H105c-19 0-30-20-22-37l8-25z" fill="#f8fafc" opacity=".9"/>
    <path d="M1077 348c44 16 74 42 91 78l9 20h-131c4-39 14-72 31-98z" fill="#f8fafc" opacity=".88"/>
    <path d="M167 337l64-48M1020 319l53 28" stroke="#f59e0b" stroke-width="9" stroke-linecap="round"/>
  </g>
</svg>
