<svg xmlns="http://www.w3.org/2000/svg" viewBox="0 0 1200 720" role="img" aria-labelledby="title desc">
  <title id="title">รถเอสยูวี</title>
  <desc id="desc">ภาพวาดรถเอสยูวีด้านข้าง ไม่มีลายน้ำ</desc>
  <defs>
    <linearGradient id="body" x1="110" x2="1110" y1="270" y2="472" gradientUnits="userSpaceOnUse">
      <stop offset="0" stop-color="#111"/>
      <stop offset=".46" stop-color="#45403d"/>
      <stop offset=".74" stop-color="#171717"/>
      <stop offset="1" stop-color="#050505"/>
    </linearGradient>
    <filter id="shadow" x="-10%" y="-20%" width="120%" height="150%">
      <feDropShadow dx="0" dy="27" stdDeviation="17" flood-color="#0f172a" flood-opacity=".13"/>
    </filter>
  </defs>
  <rect width="1200" height="720" fill="#fff"/>
  <ellipse cx="604" cy="530" rx="486" ry="18" fill="#111827" opacity=".12"/>
  <g filter="url(#shadow)">
    <path d="M87 445c11-63 40-105 88-126l132-54c65-53 139-80 223-80h217c91 0 165 28 223 85l78 34c58 25 93 69 104 132l7 40H95c-12 0-16-15-8-31z" fill="url(#body)"/>
    <path d="M337 291c58-54 127-80 207-80h188c82 0 151 27 206 80H337z" fill="#09090b"/>
    <path d="M376 284c45-36 97-55 155-57l-27 57H376zM571 227h157c52 2 98 20 137 57H543l28-57z" fill="#1f2937"/>
    <path d="M176 390c169 30 363 44 583 41 127-2 237-10 329-25" stroke="#f8fafc" stroke-width="17" stroke-linecap="round" opacity=".29"/>
    <path d="M265 456c0-68 55-123 123-123s123 55 123 123H265zM826 456c0-68 55-123 123-123s123 55 123 123H826z" fill="#050505"/>
    <circle cx="388" cy="456" r="79" fill="#09090b"/>
    <circle cx="388" cy="456" r="56" fill="#fff"/>
    <circle cx="388" cy="456" r="38" fill="#e5e7eb"/>
    <circle cx="388" cy="456" r="14" fill="#111827"/>
    <g stroke="#111827" stroke-width="5" stroke-linecap="round">
      <path d="M388 419v74M351 456h74M362 430l52 52M414 430l-52 52"/>
    </g>
    <circle cx="949" cy="456" r="79" fill="#09090b"/>
    <circle cx="949" cy="456" r="56" fill="#fff"/>
    <circle cx="949" cy="456" r="38" fill="#e5e7eb"/>
    <circle cx="949" cy="456" r="14" fill="#111827"/>
    <g stroke="#111827" stroke-width="5" stroke-linecap="round">
      <path d="M949 419v74M912 456h74M923 430l52 52M975 430l-52 52"/>
    </g>
    <path d="M80 410h103c23 0 40 20 36 43l-5 23H92c-19 0-30-20-22-37l10-29z" fill="#f8fafc" opacity=".88"/>
    <path d="M1057 347c50 21 82 56 96 105l6 24h-136c4-52 15-95 34-129z" fill="#f8fafc" opacity=".88"/>
    <path d="M266 353h75M822 353h91" stroke="#e5e7eb" stroke-width="14" stroke-linecap="round" opacity=".58"/>
    <path d="M150 345l72-49M1040 324l55 33" stroke="#f59e0b" stroke-width="10" stroke-linecap="round"/>
  </g>
</svg>
