<svg xmlns="http://www.w3.org/2000/svg" viewBox="0 0 1200 720" role="img" aria-labelledby="title desc">
  <title id="title">รถตู้</title>
  <desc id="desc">ภาพวาดรถตู้ด้านข้าง ไม่มีลายน้ำ</desc>
  <defs>
    <linearGradient id="body" x1="95" x2="1110" y1="235" y2="480" gradientUnits="userSpaceOnUse">
      <stop offset="0" stop-color="#111"/>
      <stop offset=".42" stop-color="#45413e"/>
      <stop offset=".72" stop-color="#181818"/>
      <stop offset="1" stop-color="#050505"/>
    </linearGradient>
    <filter id="shadow" x="-10%" y="-20%" width="120%" height="150%">
      <feDropShadow dx="0" dy="28" stdDeviation="17" flood-color="#0f172a" flood-opacity=".13"/>
    </filter>
  </defs>
  <rect width="1200" height="720" fill="#fff"/>
  <ellipse cx="607" cy="536" rx="495" ry="18" fill="#111827" opacity=".12"/>
  <g filter="url(#shadow)">
    <path d="M91 454V328c0-66 42-108 118-126 72-17 181-26 327-27h300c73 0 132 23 176 68l72 73c38 38 58 83 60 136l1 30H111c-13 0-20-13-20-28z" fill="url(#body)"/>
    <path d="M240 253h205v99H220v-70c0-16 7-25 20-29zM482 253h188v99H482V253zM707 253h146c55 2 98 24 130 65l26 34H707v-99z" fill="#101827"/>
    <path d="M177 393c156 29 344 43 563 41 139-1 258-10 355-25" stroke="#f8fafc" stroke-width="17" stroke-linecap="round" opacity=".28"/>
    <path d="M238 462c0-65 53-118 118-118s118 53 118 118H238zM836 462c0-65 53-118 118-118s118 53 118 118H836z" fill="#050505"/>
    <circle cx="356" cy="462" r="75" fill="#09090b"/>
    <circle cx="356" cy="462" r="53" fill="#fff"/>
    <circle cx="356" cy="462" r="36" fill="#e5e7eb"/>
    <circle cx="356" cy="462" r="13" fill="#111827"/>
    <g stroke="#111827" stroke-width="5" stroke-linecap="round">
      <path d="M356 427v70M321 462h70M331 437l50 50M381 437l-50 50"/>
    </g>
    <circle cx="954" cy="462" r="75" fill="#09090b"/>
    <circle cx="954" cy="462" r="53" fill="#fff"/>
    <circle cx="954" cy="462" r="36" fill="#e5e7eb"/>
    <circle cx="954" cy="462" r="13" fill="#111827"/>
    <g stroke="#111827" stroke-width="5" stroke-linecap="round">
      <path d="M954 427v70M919 462h70M929 437l50 50M979 437l-50 50"/>
    </g>
    <path d="M91 397h84c23 0 40 20 36 43l-7 42H108c-11 0-17-9-17-20v-65z" fill="#f8fafc" opacity=".88"/>
    <path d="M1075 343c37 31 59 67 67 109l5 30h-123c3-57 20-104 51-139z" fill="#f8fafc" opacity=".88"/>
    <path d="M642 376h83M816 376h87" stroke="#e5e7eb" stroke-width="13" stroke-linecap="round" opacity=".52"/>
    <path d="M152 327l63-49M1058 322l50 31" stroke="#f59e0b" stroke-width="10" stroke-linecap="round"/>
    <circle cx="170" cy="231" r="52" fill="#8b8b8b"/>
    <path d="M147 240h46l-8-36-15 17-16-17-7 36z" fill="#fbbf24"/>
  </g>
</svg>
